<svg xmlns="http://www.w3.org/2000/svg" width="256" height="256" viewBox="0 0 256 256" role="img" aria-label="RPG Criador de Fichas icon">
  <defs>
    <radialGradient id="bg" cx="50%" cy="40%" r="90%">
      <stop offset="0%" stop-color="#2563eb" />
      <stop offset="60%" stop-color="#1d4ed8" />
      <stop offset="100%" stop-color="#0f172a" />
    </radialGradient>
    <linearGradient id="stroke" x1="0%" y1="0%" x2="100%" y2="100%">
      <stop offset="0%" stop-color="#93c5fd" />
      <stop offset="100%" stop-color="#e2e8f0" />
    </linearGradient>
  </defs>
  <rect width="256" height="256" rx="48" fill="#0f172a" />
  <circle cx="128" cy="128" r="104" fill="url(#bg)" />
  <circle cx="128" cy="128" r="92" fill="none" stroke="url(#stroke)" stroke-width="12" />
  <path d="M88 108c0-30 25-55 56-55s56 25 56 55c0 15-15 35-30 45c-5 3-9 9-6 14c3 5 9 7 14 4l35-20c6-3 11 0 14 5c3 6 0 13-6 16l-45 24c-10 5-24 4-34-2c-14-9-20-24-20-41c0-5 1-10 4-14c3-4 8-4 12-1c5 3 7 8 5 13c-2 8 0 20 10 27c10 7 22 7 32 1l26-14c4-2 6-7 4-11c-2-4-6-6-10-4l-24 13c-10 6-24 6-34 0c-15-8-23-23-23-40z"
    fill="#f8fafc" opacity="0.95" />
  <text x="128" y="188" text-anchor="middle" font-family="Inter, system-ui, sans-serif" font-weight="800" font-size="56" fill="#ffffff">D&amp;D</text>
</svg>
